<svg  xmlns="http://www.w3.org/2000/svg" xmlns:xlink="http://www.w3.org/1999/xlink">
  <symbol id="bicycle" width="23" height="24" viewBox="0 0 23 24" fill="currentColor" xmlns="http://www.w3.org/2000/svg">
    <path d="M17.4297 20.38C16.6123 20.38 15.8133 20.1389 15.1336 19.6871C14.454 19.2354 13.9243 18.5933 13.6115 17.8421C13.2987 17.0908 13.2168 16.2642 13.3763 15.4667C13.5358 14.6692 13.9294 13.9366 14.5073 13.3617C15.0853 12.7867 15.8217 12.3951 16.6234 12.2365C17.4251 12.0779 18.2561 12.1593 19.0112 12.4705C19.7664 12.7816 20.4119 13.3086 20.866 13.9847C21.3201 14.6608 21.5625 15.4556 21.5625 16.2688C21.5613 17.3588 21.1255 18.4038 20.3507 19.1745C19.5759 19.9453 18.5254 20.3788 17.4297 20.38ZM17.4297 13.5875C16.8966 13.5875 16.3755 13.7448 15.9323 14.0394C15.489 14.334 15.1435 14.7527 14.9395 15.2427C14.7355 15.7326 14.6822 16.2717 14.7862 16.7918C14.8902 17.312 15.1469 17.7897 15.5238 18.1647C15.9008 18.5397 16.381 18.795 16.9039 18.8985C17.4267 19.0019 17.9686 18.9488 18.4611 18.7459C18.9536 18.543 19.3746 18.1993 19.6708 17.7584C19.9669 17.3174 20.125 16.7991 20.125 16.2688C20.1242 15.5579 19.8399 14.8764 19.3346 14.3737C18.8294 13.8711 18.1443 13.5883 17.4297 13.5875Z"/>
    <path d="M5.57031 20.38C4.75292 20.38 3.95388 20.1389 3.27425 19.6871C2.59461 19.2354 2.0649 18.5933 1.75209 17.8421C1.43929 17.0908 1.35745 16.2642 1.51691 15.4667C1.67638 14.6692 2.06999 13.9366 2.64797 13.3617C3.22596 12.7867 3.96236 12.3951 4.76404 12.2365C5.56573 12.0779 6.3967 12.1593 7.15187 12.4705C7.90705 12.7816 8.5525 13.3086 9.00662 13.9847C9.46074 14.6608 9.70313 15.4556 9.70313 16.2688C9.70194 17.3588 9.26614 18.4038 8.49134 19.1745C7.71655 19.9453 6.66604 20.3788 5.57031 20.38ZM5.57031 13.5875C5.03723 13.5875 4.51612 13.7448 4.07288 14.0394C3.62964 14.334 3.28417 14.7527 3.08017 15.2427C2.87617 15.7326 2.82279 16.2717 2.92679 16.7918C3.03079 17.312 3.28749 17.7897 3.66444 18.1647C4.04139 18.5397 4.52165 18.795 5.04448 18.8985C5.56732 19.0019 6.10926 18.9488 6.60177 18.7459C7.09427 18.543 7.51522 18.1993 7.81139 17.7584C8.10755 17.3174 8.26563 16.7991 8.26563 16.2688C8.26479 15.5579 7.98056 14.8764 7.47527 14.3737C6.96998 13.8711 6.2849 13.5883 5.57031 13.5875Z"/>
    <path d="M14.3749 6.08002C14.5642 6.08067 14.7518 6.04398 14.9268 5.97207C15.1018 5.90015 15.2608 5.79445 15.3944 5.66105C15.5281 5.52766 15.6339 5.36923 15.7056 5.19493C15.7774 5.02062 15.8137 4.83389 15.8124 4.64555C15.8145 4.45814 15.779 4.2722 15.708 4.0986C15.637 3.925 15.532 3.76722 15.399 3.63448C15.2659 3.50175 15.1077 3.39673 14.9334 3.32557C14.7591 3.2544 14.5723 3.21852 14.3839 3.22002C14.1951 3.21943 14.0081 3.25584 13.8334 3.32716C13.6588 3.39848 13.5 3.50332 13.3661 3.63569C13.2322 3.76807 13.1258 3.92538 13.053 4.09865C12.9803 4.27192 12.9425 4.45776 12.9419 4.64555C12.9413 4.83334 12.9779 5.0194 13.0496 5.19312C13.1213 5.36684 13.2267 5.52482 13.3598 5.65802C13.4928 5.79122 13.651 5.89705 13.8251 5.96945C13.9993 6.04186 14.1861 6.07943 14.3749 6.08002Z"/>
    <path d="M16.511 8.9401H14.5453C14.513 8.94011 14.4814 8.93148 14.4536 8.91513C14.4259 8.89878 14.4031 8.8753 14.3876 8.84715L12.9618 6.24768C12.8613 6.0545 12.7165 5.88757 12.5392 5.76039C12.3618 5.63322 12.1568 5.54938 11.9408 5.51565C11.7248 5.48193 11.5039 5.49928 11.2959 5.56628C11.0879 5.63329 10.8986 5.74808 10.7435 5.90135L7.60527 9.04735C7.34163 9.31505 7.19197 9.67362 7.1875 10.0484C7.1875 10.8259 7.75352 11.103 8.01855 11.2594C9.29883 11.9932 10.2004 12.5299 10.695 12.8279C10.7213 12.8438 10.743 12.8662 10.7581 12.8929C10.7732 12.9196 10.7812 12.9497 10.7813 12.9803V16.0691C10.7813 16.4539 11.0786 16.7841 11.4654 16.8033C11.5625 16.808 11.6596 16.793 11.7507 16.7593C11.8418 16.7255 11.9251 16.6738 11.9955 16.6071C12.0659 16.5404 12.122 16.4602 12.1604 16.3714C12.1988 16.2825 12.2186 16.1868 12.2188 16.0901V12.247C12.2188 12.1335 12.1917 12.0216 12.1397 11.9206C12.0877 11.8195 12.0122 11.7323 11.9196 11.666L10.2575 10.4769C10.2366 10.4621 10.2192 10.4429 10.2064 10.4208C10.1935 10.3987 10.1856 10.3741 10.1832 10.3487C10.1807 10.3233 10.1837 10.2977 10.192 10.2736C10.2004 10.2494 10.2138 10.2273 10.2314 10.2088L12.1181 8.20723C12.1375 8.18664 12.1614 8.17089 12.1881 8.16126C12.2147 8.15164 12.2432 8.14842 12.2714 8.15186C12.2995 8.1553 12.3264 8.16531 12.3499 8.18107C12.3734 8.19683 12.3928 8.21789 12.4065 8.24253L13.3867 10.0023C13.449 10.1139 13.5402 10.2068 13.6508 10.2715C13.7614 10.3362 13.8873 10.3702 14.0156 10.3701H16.5313C16.6286 10.3702 16.725 10.3506 16.8145 10.3126C16.9041 10.2745 16.9849 10.2188 17.0521 10.1487C17.1193 10.0786 17.1715 9.99565 17.2055 9.90489C17.2396 9.81413 17.2547 9.71744 17.25 9.62069C17.2311 9.23593 16.8978 8.9401 16.511 8.9401Z"/>
  </symbol>

  <symbol id="plane" width="23" height="24" viewBox="0 0 23 24" fill="currentColor" xmlns="http://www.w3.org/2000/svg">
    <g clipPath="url(#clip0_1369_1608)">
    <path d="M18.5347 1.58764C17.7301 1.77529 16.9218 1.96381 16.6212 2.48041L14.2941 7.0289L1.79919 9.94313L1.29295 11.3964L10.8544 12.2834L9.23212 16.221L5.60602 17.0668L4.69562 18.6143L7.31157 18.893L7.60988 20.1587C7.74352 20.6074 8.21259 20.9069 8.61297 20.8135L9.82167 20.5316L11.2228 22.8753L12.1332 21.3277L11.2383 17.5307L13.8637 14.2479L18.8731 22.8728L19.8832 21.7484L16.8005 8.66838L19.6314 4.44883C19.9358 3.93136 19.7373 3.08889 19.5378 2.24247C19.439 1.82321 18.9351 1.49426 18.5347 1.58764Z"/>
    </g>
    <defs>
    <clipPath id="clip0_1369_1608">
    <rect width="23" height="22.88" fill="white" transform="translate(0 0.360016)"/>
    </clipPath>
    </defs>
  </symbol>

  <symbol id="bus" width="23" height="24" viewBox="0 0 23 24" fill="currentColor" xmlns="http://www.w3.org/2000/svg">
    <path d="M5.75127 15.9657C5.75127 15.5146 5.56417 15.1294 5.18998 14.8102C4.81579 14.491 4.36426 14.3314 3.8354 14.3314C3.30654 14.3314 2.85501 14.491 2.48082 14.8102C2.10663 15.1294 1.91953 15.5146 1.91953 15.9657C1.91953 16.4168 2.10663 16.802 2.48082 17.1212C2.85501 17.4404 3.30654 17.6 3.8354 17.6C4.36426 17.6 4.81579 17.4404 5.18998 17.1212C5.56417 16.802 5.75127 16.4168 5.75127 15.9657ZM21.0782 15.9657C21.0782 15.5146 20.8911 15.1294 20.5169 14.8102C20.1427 14.491 19.6912 14.3314 19.1623 14.3314C18.6335 14.3314 18.182 14.491 17.8078 14.8102C17.4336 15.1294 17.2465 15.5146 17.2465 15.9657C17.2465 16.4168 17.4336 16.802 17.8078 17.1212C18.182 17.4404 18.6335 17.6 19.1623 17.6C19.6912 17.6 20.1427 17.4404 20.5169 17.1212C20.8911 16.802 21.0782 16.4168 21.0782 15.9657ZM20.3897 10.9096L19.312 6.00679C19.2621 5.81101 19.1499 5.65142 18.9753 5.52799C18.8006 5.40457 18.5986 5.34286 18.3691 5.34286H4.62869C4.39918 5.34286 4.19712 5.40457 4.0225 5.52799C3.84787 5.65142 3.73561 5.81101 3.68572 6.00679L2.60805 10.9096C2.55815 11.165 2.628 11.3906 2.81759 11.5863C3.00719 11.7821 3.25166 11.88 3.55101 11.88H19.4467C19.7461 11.88 19.9906 11.7821 20.1802 11.5863C20.3697 11.3906 20.4396 11.165 20.3897 10.9096ZM17.007 3.09572C17.007 2.92548 16.9371 2.78078 16.7974 2.66161C16.6577 2.54244 16.4881 2.48286 16.2885 2.48286H6.7092C6.50963 2.48286 6.34 2.54244 6.2003 2.66161C6.0606 2.78078 5.99075 2.92548 5.99075 3.09572C5.99075 3.26595 6.0606 3.41066 6.2003 3.52982C6.34 3.64899 6.50963 3.70857 6.7092 3.70857H16.2885C16.4881 3.70857 16.6577 3.64899 16.7974 3.52982C16.9371 3.41066 17.007 3.26595 17.007 3.09572ZM22.9941 12.3524V20.0514H21.0782V21.6857C21.0782 22.1368 20.8911 22.522 20.5169 22.8412C20.1427 23.1604 19.6912 23.32 19.1623 23.32C18.6335 23.32 18.182 23.1604 17.8078 22.8412C17.4336 22.522 17.2465 22.1368 17.2465 21.6857V20.0514H5.75127V21.6857C5.75127 22.1368 5.56417 22.522 5.18998 22.8412C4.81579 23.1604 4.36426 23.32 3.8354 23.32C3.30654 23.32 2.85501 23.1604 2.48082 22.8412C2.10663 22.522 1.91953 22.1368 1.91953 21.6857V20.0514H0.00366211V12.3524C0.00366211 11.3991 0.128393 10.45 0.377855 9.50518L1.91953 3.70857C2.00934 3.04465 2.49579 2.46158 3.37888 1.95938C4.26198 1.45718 5.4095 1.0784 6.82146 0.823038C8.23342 0.567681 9.79255 0.440002 11.4989 0.440002C13.2052 0.440002 14.7643 0.567681 16.1763 0.823038C17.5882 1.0784 18.7358 1.45718 19.6189 1.95938C20.502 2.46158 20.9884 3.04465 21.0782 3.70857L22.6498 9.50518C22.8793 10.3734 22.9941 11.3225 22.9941 12.3524Z"/>
  </symbol>

  <symbol id="onfoot" width="23" height="24" viewBox="0 0 23 24" fill="currentColor" xmlns="http://www.w3.org/2000/svg">
    <path d="M16.2917 6.08003C17.3502 6.08003 18.2083 5.22638 18.2083 4.17336C18.2083 3.12034 17.3502 2.26669 16.2917 2.26669C15.2331 2.26669 14.375 3.12034 14.375 4.17336C14.375 5.22638 15.2331 6.08003 16.2917 6.08003Z"/>
    <path d="M15.1196 10.8171C15.3396 11.1432 15.6552 11.3941 16.0234 11.5356C16.3917 11.6772 16.7949 11.7026 17.1781 11.6084L20.356 10.8181L19.8931 8.96859L16.7153 9.7589L15.3937 7.78836C15.1114 7.36753 14.6732 7.07486 14.1747 6.97422L10.489 6.24015C10.0766 6.15783 9.64852 6.21284 9.27076 6.39669C8.89299 6.58054 8.58658 6.883 8.39883 7.25736L6.80992 10.4186L8.52438 11.2718L10.1133 8.10964L11.9983 8.48525L7.12425 16.5667H2.875V18.4733H7.12425C7.79317 18.4733 8.42279 18.1187 8.76779 17.5476L10.6059 14.5008L15.5595 15.4865L17.2998 20.6812L19.1168 20.0778L17.3775 14.884C17.2701 14.5652 17.0802 14.2801 16.8268 14.0575C16.5734 13.8349 16.2656 13.6826 15.9342 13.6161L13.0218 13.0374L14.72 10.2213L15.1196 10.8171Z"/>
  </symbol>


</svg>