<svg width="96" height="15" viewBox="0 0 96 15"  fill="none" xmlns="http://www.w3.org/2000/svg"><path d="M94.911 6.189C95.637 5.727 96 5.016 96 4.055c0-1.255-.523-2.242-1.568-2.96C93.416.366 92.22 0 90.84 0c-1.35 0-2.584.397-3.701 1.192-1.104.781-1.655 1.825-1.655 3.132 0 .487.152.89.457 1.211.305.308.74.462 1.307.462.551 0 .972-.154 1.263-.462.304-.32.457-.724.457-1.21-.03-.372.094-.75.37-1.135.276-.397.777-.595 1.502-.595.61.012 1.046.166 1.307.46.276.296.4.59.37.885 0 .205-.073.41-.218.615a2.031 2.031 0 0 1-.457.48c-.145.116-.385.282-.718.5-.334.218-.567.372-.697.462-.755.55-1.133 1.28-1.133 2.19 0 .449.16.827.48 1.135.333.294.776.442 1.328.442.551 0 .987-.148 1.306-.442.334-.308.501-.686.501-1.134 0-.193.036-.372.109-.539.073-.166.189-.32.348-.46.175-.142.32-.257.436-.347.13-.09.32-.205.566-.346.261-.14.443-.243.544-.307ZM76.305 10.235l3.857-4.771c.395-.577.932-.897 1.61-.963.678-.078 1.271.085 1.78.491.509.406.749.95.72 1.63v6.834c0 .432-.169.799-.508 1.1-.325.288-.72.432-1.187.432-.466 0-.868-.144-1.207-.432a1.443 1.443 0 0 1-.488-1.1V9.214l-3.856 4.772c-.396.576-.933.897-1.61.962-.679.079-1.272-.085-1.78-.49-.51-.406-.75-.95-.721-1.63V6.013c0-.432.162-.798.487-1.1a1.758 1.758 0 0 1 1.208-.451c.466 0 .862.15 1.187.452.339.3.508.667.508 1.1v4.221Z" fill="#192144"/><path fill-rule="evenodd" clip-rule="evenodd" d="M58.967 13.389V5.975c0-.426-.178-.793-.535-1.1a1.725 1.725 0 0 0-1.219-.479 1.7 1.7 0 0 0-1.198.48c-.342.306-.513.673-.513 1.099v-.18c-.171-.4-.513-.74-1.027-1.019-.513-.293-1.097-.44-1.753-.44-1.284 0-2.467.473-3.55 1.42C48.115 6.7 47.588 8 47.588 9.651c0 1.692.52 3.004 1.56 3.937 1.042.932 2.232 1.399 3.573 1.399.656 0 1.233-.12 1.732-.36.5-.253.863-.553 1.09-.9.086.36.286.66.6.9.313.226.67.34 1.07.34.47 0 .876-.154 1.218-.46.357-.306.535-.68.535-1.12Zm-5.47-1.362c1.169 0 2.116-1.026 2.116-2.291 0-1.266-.947-2.291-2.116-2.291S51.38 8.47 51.38 9.735c0 1.266.948 2.292 2.117 2.292Z" fill="#192144"/><path d="M43.081 8.237V6.094c0-.435.177-.804.53-1.108a1.793 1.793 0 0 1 1.236-.475c.47 0 .882.159 1.235.475.353.304.53.673.53 1.108v7.343c0 .435-.177.804-.53 1.108-.338.303-.75.455-1.235.455-.486 0-.905-.152-1.258-.455a1.434 1.434 0 0 1-.508-1.108v-2.175h-3.817v2.175c0 .435-.177.804-.53 1.108-.338.303-.75.455-1.235.455-.486 0-.905-.152-1.258-.455a1.434 1.434 0 0 1-.508-1.108V6.094c0-.435.177-.804.53-1.108a1.793 1.793 0 0 1 1.236-.475c.47 0 .882.159 1.235.475.353.304.53.673.53 1.108v2.143h3.817ZM33.962 4.511c.346 0 .642.131.89.394.247.262.37.867.37 1.234 0 .368-.123.747-.37 1.01-.247.262-.544.354-.89.354h-2.958v5.971c0 1.13-.994 1.526-1.99 1.526-.924 0-1.807-.5-1.807-1.515l.03-8.974h6.725ZM12.855 0v13.332c0 .44-.239.812-.57 1.118-.317.307-.815.46-1.27.46-.455 0-1.113-.153-1.444-.46a1.497 1.497 0 0 1-.476-1.118V3.008H3.772v10.322c0 .44-.165.813-.496 1.12-.317.306-.963.46-1.418.46-.455 0-1.051-.154-1.382-.46A1.497 1.497 0 0 1 0 13.33V0h12.855ZM24.637 13.365c-1.076 1.01-2.517 1.516-4.322 1.516-1.804 0-3.237-.505-4.298-1.516-1.092-1.026-1.638-2.308-1.638-3.847 0-1.554.546-2.836 1.638-3.847 1.06-1.01 2.494-1.516 4.298-1.516 1.805 0 3.246.505 4.322 1.516 1.077 1.026 1.615 2.308 1.615 3.847 0 1.539-.538 2.821-1.614 3.847Zm-2.802-5.43a1.835 1.835 0 0 0-1.116-.567 2.288 2.288 0 0 0-1.235.114c-.38.15-.704.407-.973.769-.254.362-.364.784-.333 1.267 0 .634.198 1.162.594 1.584.412.407.926.611 1.543.611.634 0 1.148-.196 1.544-.588.396-.408.594-.943.594-1.607 0-.633-.206-1.161-.618-1.584ZM64.022 4.462c2.024 0 7.417.03 7.417.03s.004 6.591.004 8.894c0 .443-.182.824-.546 1.145-.347.305-.662.457-1.191.457-.53 0-.8.04-1.164-.265-.347-.32-.667-.894-.667-1.337v-5.95H65.42c0 4.266 0 5.203-1.57 6.728-.58.55-1.325.824-2.235.824-.546 0-.867-.13-1.214-.436-.347-.32-.617-.832-.617-1.304 0-1.018.213-1.423.76-2.088 1.566 0 1.498-.38 1.4-3.266v-1.83c.017-.443.098-1.602.098-1.602h1.98ZM93.16 12.745c0 1.239-1.05 2.243-2.345 2.243-1.295 0-2.344-1.005-2.344-2.243s1.05-2.242 2.344-2.242c1.295 0 2.345 1.004 2.345 2.242Z" fill="#192144"/></svg>