<svg id="bicycle" width="23" height="24" viewBox="0 0 23 24" fill="currentColor" xmlns="http://www.w3.org/2000/svg">
<path d="M17.4297 20.38C16.6123 20.38 15.8133 20.1389 15.1336 19.6871C14.454 19.2354 13.9243 18.5933 13.6115 17.8421C13.2987 17.0908 13.2168 16.2642 13.3763 15.4667C13.5358 14.6692 13.9294 13.9366 14.5073 13.3617C15.0853 12.7867 15.8217 12.3951 16.6234 12.2365C17.4251 12.0779 18.2561 12.1593 19.0112 12.4705C19.7664 12.7816 20.4119 13.3086 20.866 13.9847C21.3201 14.6608 21.5625 15.4556 21.5625 16.2688C21.5613 17.3588 21.1255 18.4038 20.3507 19.1745C19.5759 19.9453 18.5254 20.3788 17.4297 20.38ZM17.4297 13.5875C16.8966 13.5875 16.3755 13.7448 15.9323 14.0394C15.489 14.334 15.1435 14.7527 14.9395 15.2427C14.7355 15.7326 14.6822 16.2717 14.7862 16.7918C14.8902 17.312 15.1469 17.7897 15.5238 18.1647C15.9008 18.5397 16.381 18.795 16.9039 18.8985C17.4267 19.0019 17.9686 18.9488 18.4611 18.7459C18.9536 18.543 19.3746 18.1993 19.6708 17.7584C19.9669 17.3174 20.125 16.7991 20.125 16.2688C20.1242 15.5579 19.8399 14.8764 19.3346 14.3737C18.8294 13.8711 18.1443 13.5883 17.4297 13.5875Z"/>
<path d="M5.57031 20.38C4.75292 20.38 3.95388 20.1389 3.27425 19.6871C2.59461 19.2354 2.0649 18.5933 1.75209 17.8421C1.43929 17.0908 1.35745 16.2642 1.51691 15.4667C1.67638 14.6692 2.06999 13.9366 2.64797 13.3617C3.22596 12.7867 3.96236 12.3951 4.76404 12.2365C5.56573 12.0779 6.3967 12.1593 7.15187 12.4705C7.90705 12.7816 8.5525 13.3086 9.00662 13.9847C9.46074 14.6608 9.70313 15.4556 9.70313 16.2688C9.70194 17.3588 9.26614 18.4038 8.49134 19.1745C7.71655 19.9453 6.66604 20.3788 5.57031 20.38ZM5.57031 13.5875C5.03723 13.5875 4.51612 13.7448 4.07288 14.0394C3.62964 14.334 3.28417 14.7527 3.08017 15.2427C2.87617 15.7326 2.82279 16.2717 2.92679 16.7918C3.03079 17.312 3.28749 17.7897 3.66444 18.1647C4.04139 18.5397 4.52165 18.795 5.04448 18.8985C5.56732 19.0019 6.10926 18.9488 6.60177 18.7459C7.09427 18.543 7.51522 18.1993 7.81139 17.7584C8.10755 17.3174 8.26563 16.7991 8.26563 16.2688C8.26479 15.5579 7.98056 14.8764 7.47527 14.3737C6.96998 13.8711 6.2849 13.5883 5.57031 13.5875Z"/>
<path d="M14.3749 6.08002C14.5642 6.08067 14.7518 6.04398 14.9268 5.97207C15.1018 5.90015 15.2608 5.79445 15.3944 5.66105C15.5281 5.52766 15.6339 5.36923 15.7056 5.19493C15.7774 5.02062 15.8137 4.83389 15.8124 4.64555C15.8145 4.45814 15.779 4.2722 15.708 4.0986C15.637 3.925 15.532 3.76722 15.399 3.63448C15.2659 3.50175 15.1077 3.39673 14.9334 3.32557C14.7591 3.2544 14.5723 3.21852 14.3839 3.22002C14.1951 3.21943 14.0081 3.25584 13.8334 3.32716C13.6588 3.39848 13.5 3.50332 13.3661 3.63569C13.2322 3.76807 13.1258 3.92538 13.053 4.09865C12.9803 4.27192 12.9425 4.45776 12.9419 4.64555C12.9413 4.83334 12.9779 5.0194 13.0496 5.19312C13.1213 5.36684 13.2267 5.52482 13.3598 5.65802C13.4928 5.79122 13.651 5.89705 13.8251 5.96945C13.9993 6.04186 14.1861 6.07943 14.3749 6.08002Z"/>
<path d="M16.511 8.9401H14.5453C14.513 8.94011 14.4814 8.93148 14.4536 8.91513C14.4259 8.89878 14.4031 8.8753 14.3876 8.84715L12.9618 6.24768C12.8613 6.0545 12.7165 5.88757 12.5392 5.76039C12.3618 5.63322 12.1568 5.54938 11.9408 5.51565C11.7248 5.48193 11.5039 5.49928 11.2959 5.56628C11.0879 5.63329 10.8986 5.74808 10.7435 5.90135L7.60527 9.04735C7.34163 9.31505 7.19197 9.67362 7.1875 10.0484C7.1875 10.8259 7.75352 11.103 8.01855 11.2594C9.29883 11.9932 10.2004 12.5299 10.695 12.8279C10.7213 12.8438 10.743 12.8662 10.7581 12.8929C10.7732 12.9196 10.7812 12.9497 10.7813 12.9803V16.0691C10.7813 16.4539 11.0786 16.7841 11.4654 16.8033C11.5625 16.808 11.6596 16.793 11.7507 16.7593C11.8418 16.7255 11.9251 16.6738 11.9955 16.6071C12.0659 16.5404 12.122 16.4602 12.1604 16.3714C12.1988 16.2825 12.2186 16.1868 12.2188 16.0901V12.247C12.2188 12.1335 12.1917 12.0216 12.1397 11.9206C12.0877 11.8195 12.0122 11.7323 11.9196 11.666L10.2575 10.4769C10.2366 10.4621 10.2192 10.4429 10.2064 10.4208C10.1935 10.3987 10.1856 10.3741 10.1832 10.3487C10.1807 10.3233 10.1837 10.2977 10.192 10.2736C10.2004 10.2494 10.2138 10.2273 10.2314 10.2088L12.1181 8.20723C12.1375 8.18664 12.1614 8.17089 12.1881 8.16126C12.2147 8.15164 12.2432 8.14842 12.2714 8.15186C12.2995 8.1553 12.3264 8.16531 12.3499 8.18107C12.3734 8.19683 12.3928 8.21789 12.4065 8.24253L13.3867 10.0023C13.449 10.1139 13.5402 10.2068 13.6508 10.2715C13.7614 10.3362 13.8873 10.3702 14.0156 10.3701H16.5313C16.6286 10.3702 16.725 10.3506 16.8145 10.3126C16.9041 10.2745 16.9849 10.2188 17.0521 10.1487C17.1193 10.0786 17.1715 9.99565 17.2055 9.90489C17.2396 9.81413 17.2547 9.71744 17.25 9.62069C17.2311 9.23593 16.8978 8.9401 16.511 8.9401Z"/>
</svg>
