<svg width="28" height="22" viewBox="0 0 28 22" fill="none" xmlns="http://www.w3.org/2000/svg"><path d="m18.275 10.587-6-4A.5.5 0 0 0 11.5 7v8a.488.488 0 0 0 .262.437c.074.038.155.06.238.063a.45.45 0 0 0 .275-.088l6-4a.488.488 0 0 0 0-.825ZM12.5 14.062V7.937L17.1 11l-4.6 3.062ZM26.813 3.85a2.55 2.55 0 0 0-1.513-1.7C21.075.525 14.287.55 14 .55c-.287 0-7.075-.025-11.3 1.6a2.55 2.55 0 0 0-1.513 1.7C.875 5.062.5 7.287.5 11c0 3.712.375 5.937.688 7.15a2.55 2.55 0 0 0 1.512 1.7c4.225 1.625 11.012 1.6 11.3 1.6h.088c.862 0 7.2-.05 11.212-1.6a2.55 2.55 0 0 0 1.512-1.7c.313-1.213.688-3.438.688-7.15 0-3.713-.375-5.938-.688-7.15Zm-.976 14.05a1.5 1.5 0 0 1-.9 1.012C20.887 20.475 14.075 20.45 14 20.45c-.075 0-6.888.025-10.938-1.538a1.5 1.5 0 0 1-.9-1.012c-.3-1.163-.662-3.3-.662-6.9 0-3.6.363-5.738.663-6.9a1.5 1.5 0 0 1 .9-1.013C7.112 1.525 13.925 1.55 14 1.55c.075 0 6.887-.025 10.938 1.537a1.5 1.5 0 0 1 .9 1.013c.3 1.162.662 3.3.662 6.9 0 3.6-.363 5.737-.663 6.9Z" fill="#000"/></svg>