<svg width="28" height="26" viewBox="0 0 28 26" fill="none" xmlns="http://www.w3.org/2000/svg"><path d="M27.26.687A2.07 2.07 0 0 0 25.164.36l-23.89 9.644a2.058 2.058 0 0 0 .105 3.846l5.154 1.789 2.794 9.235c.005.018.022.03.03.048a.653.653 0 0 0 .425.39c.014.006.023.018.037.02h.008l.004.002c.103.022.21.016.31-.016.01-.003.022-.003.034-.007a.66.66 0 0 0 .254-.163c.008-.01.022-.01.03-.018l4.017-4.435 5.863 4.54c.356.279.794.43 1.246.43.979 0 1.823-.686 2.024-1.642l4.35-21.357a2.043 2.043 0 0 0-.7-1.982v.002ZM10.784 17.393l-.943 4.583-1.966-6.504 9.753-5.08-6.663 6.664a.664.664 0 0 0-.181.337Zm11.519 6.363a.72.72 0 0 1-.463.532.7.7 0 0 1-.685-.104l-6.351-4.919a.667.667 0 0 0-.901.08l-2.796 3.082.94-4.57 9.586-9.586a.667.667 0 0 0-.778-1.063L7.037 14.405 1.815 12.59a.7.7 0 0 1-.482-.656.71.71 0 0 1 .446-.69l23.885-9.644a.715.715 0 0 1 .744.114.698.698 0 0 1 .243.69l-4.348 21.354v-.001Z" fill="#000"/></svg>